<svg width="165" height="67" viewBox="0 0 165 67" fill="none" xmlns="http://www.w3.org/2000/svg">
<rect width="165" height="67" rx="8" fill="#181B23"/>
<path d="M43.001 40.543V21.5H47.249V44H43.4258L43.001 40.543ZM32.9814 36.2656V35.958C32.9814 34.7471 33.1182 33.6484 33.3916 32.6621C33.665 31.666 34.0654 30.8115 34.5928 30.0986C35.1201 29.3857 35.7695 28.834 36.541 28.4434C37.3125 28.0527 38.1914 27.8574 39.1777 27.8574C40.1055 27.8574 40.916 28.0527 41.6094 28.4434C42.3125 28.834 42.9082 29.3906 43.3965 30.1133C43.8945 30.8262 44.2949 31.6709 44.5977 32.6475C44.9004 33.6143 45.1201 34.6738 45.2568 35.8262V36.5C45.1201 37.6035 44.9004 38.6289 44.5977 39.5762C44.2949 40.5234 43.8945 41.3535 43.3965 42.0664C42.9082 42.7695 42.3125 43.3164 41.6094 43.707C40.9062 44.0977 40.0859 44.293 39.1484 44.293C38.1621 44.293 37.2832 44.0928 36.5117 43.6924C35.75 43.292 35.1055 42.7305 34.5781 42.0078C34.0605 41.2852 33.665 40.4355 33.3916 39.459C33.1182 38.4824 32.9814 37.418 32.9814 36.2656ZM37.2002 35.958V36.2656C37.2002 36.9199 37.249 37.5303 37.3467 38.0967C37.4541 38.6631 37.625 39.166 37.8594 39.6055C38.1035 40.0352 38.416 40.3721 38.7969 40.6162C39.1875 40.8506 39.6611 40.9678 40.2178 40.9678C40.9404 40.9678 41.5361 40.8066 42.0049 40.4844C42.4736 40.1523 42.8301 39.6982 43.0742 39.1221C43.3281 38.5459 43.4746 37.8818 43.5137 37.1299V35.2109C43.4844 34.5957 43.3965 34.0439 43.25 33.5557C43.1133 33.0576 42.9082 32.6328 42.6348 32.2812C42.3711 31.9297 42.0391 31.6562 41.6387 31.4609C41.248 31.2656 40.7842 31.168 40.2471 31.168C39.7002 31.168 39.2314 31.2949 38.8408 31.5488C38.4502 31.793 38.1328 32.1299 37.8887 32.5596C37.6543 32.9893 37.4785 33.4971 37.3613 34.083C37.2539 34.6592 37.2002 35.2842 37.2002 35.958ZM57.5996 40.4258V33.3652C57.5996 32.8574 57.5166 32.4229 57.3506 32.0615C57.1846 31.6904 56.9258 31.4023 56.5742 31.1973C56.2324 30.9922 55.7881 30.8896 55.2412 30.8896C54.7725 30.8896 54.3672 30.9727 54.0254 31.1387C53.6836 31.2949 53.4199 31.5244 53.2344 31.8271C53.0488 32.1201 52.9561 32.4668 52.9561 32.8672H48.7373C48.7373 32.1934 48.8936 31.5537 49.2061 30.9482C49.5186 30.3428 49.9727 29.8105 50.5684 29.3516C51.1641 28.8828 51.8721 28.5166 52.6924 28.2529C53.5225 27.9893 54.4502 27.8574 55.4756 27.8574C56.7061 27.8574 57.7998 28.0625 58.7568 28.4727C59.7139 28.8828 60.4658 29.498 61.0127 30.3184C61.5693 31.1387 61.8477 32.1641 61.8477 33.3945V40.1768C61.8477 41.0459 61.9014 41.7588 62.0088 42.3154C62.1162 42.8623 62.2725 43.3408 62.4775 43.751V44H58.2148C58.0098 43.5703 57.8535 43.0332 57.7461 42.3887C57.6484 41.7344 57.5996 41.0801 57.5996 40.4258ZM58.1562 34.3467L58.1855 36.7344H55.8271C55.2705 36.7344 54.7871 36.7979 54.377 36.9248C53.9668 37.0518 53.6299 37.2324 53.3662 37.4668C53.1025 37.6914 52.9072 37.9551 52.7803 38.2578C52.6631 38.5605 52.6045 38.8926 52.6045 39.2539C52.6045 39.6152 52.6875 39.9424 52.8535 40.2354C53.0195 40.5186 53.2588 40.7432 53.5713 40.9092C53.8838 41.0654 54.25 41.1436 54.6699 41.1436C55.3047 41.1436 55.8564 41.0166 56.3252 40.7627C56.7939 40.5088 57.1553 40.1963 57.4092 39.8252C57.6729 39.4541 57.8096 39.1025 57.8193 38.7705L58.9326 40.5576C58.7764 40.958 58.5615 41.373 58.2881 41.8027C58.0244 42.2324 57.6875 42.6377 57.2773 43.0186C56.8672 43.3896 56.374 43.6973 55.7979 43.9414C55.2217 44.1758 54.5381 44.293 53.7471 44.293C52.7412 44.293 51.8281 44.0928 51.0078 43.6924C50.1973 43.2822 49.5527 42.7207 49.0742 42.0078C48.6055 41.2852 48.3711 40.4648 48.3711 39.5469C48.3711 38.7168 48.5273 37.9795 48.8398 37.335C49.1523 36.6904 49.6113 36.1484 50.2168 35.709C50.832 35.2598 51.5986 34.9229 52.5166 34.6982C53.4346 34.4639 54.499 34.3467 55.71 34.3467H58.1562ZM72.1689 39.6201C72.1689 39.3174 72.0811 39.0439 71.9053 38.7998C71.7295 38.5557 71.4023 38.3311 70.9238 38.126C70.4551 37.9111 69.7764 37.7158 68.8877 37.54C68.0869 37.3643 67.3398 37.1445 66.6465 36.8809C65.9629 36.6074 65.3672 36.2803 64.8594 35.8994C64.3613 35.5186 63.9707 35.0693 63.6875 34.5518C63.4043 34.0244 63.2627 33.4238 63.2627 32.75C63.2627 32.0859 63.4043 31.4609 63.6875 30.875C63.9805 30.2891 64.3955 29.7715 64.9326 29.3223C65.4795 28.8633 66.1436 28.5068 66.9248 28.2529C67.7158 27.9893 68.6045 27.8574 69.5908 27.8574C70.9678 27.8574 72.1494 28.0771 73.1357 28.5166C74.1318 28.9561 74.8936 29.5615 75.4209 30.333C75.958 31.0947 76.2266 31.9639 76.2266 32.9404H72.0078C72.0078 32.5303 71.9199 32.1641 71.7441 31.8418C71.5781 31.5098 71.3145 31.251 70.9531 31.0654C70.6016 30.8701 70.1426 30.7725 69.5762 30.7725C69.1074 30.7725 68.7021 30.8555 68.3604 31.0215C68.0186 31.1777 67.7549 31.3926 67.5693 31.666C67.3936 31.9297 67.3057 32.2227 67.3057 32.5449C67.3057 32.7891 67.3545 33.0088 67.4521 33.2041C67.5596 33.3896 67.7305 33.5605 67.9648 33.7168C68.1992 33.873 68.502 34.0195 68.873 34.1562C69.2539 34.2832 69.7227 34.4004 70.2793 34.5078C71.4219 34.7422 72.4424 35.0498 73.3408 35.4307C74.2393 35.8018 74.9521 36.3096 75.4795 36.9541C76.0068 37.5889 76.2705 38.4238 76.2705 39.459C76.2705 40.1621 76.1143 40.8066 75.8018 41.3926C75.4893 41.9785 75.04 42.4912 74.4541 42.9307C73.8682 43.3604 73.165 43.6973 72.3447 43.9414C71.5342 44.1758 70.6211 44.293 69.6055 44.293C68.1309 44.293 66.8809 44.0293 65.8555 43.502C64.8398 42.9746 64.0684 42.3057 63.541 41.4951C63.0234 40.6748 62.7646 39.835 62.7646 38.9756H66.7637C66.7832 39.5518 66.9297 40.0156 67.2031 40.3672C67.4863 40.7188 67.8428 40.9727 68.2725 41.1289C68.7119 41.2852 69.1855 41.3633 69.6934 41.3633C70.2402 41.3633 70.6943 41.29 71.0557 41.1436C71.417 40.9873 71.6904 40.7822 71.876 40.5283C72.0713 40.2646 72.1689 39.9619 72.1689 39.6201ZM81.626 21.5V44H77.4072V21.5H81.626ZM81.0254 35.5186H79.8682C79.8779 34.415 80.0244 33.3994 80.3076 32.4717C80.5908 31.5342 80.9961 30.7236 81.5234 30.04C82.0508 29.3467 82.6807 28.8096 83.4131 28.4287C84.1553 28.0479 84.9756 27.8574 85.874 27.8574C86.6553 27.8574 87.3633 27.9697 87.998 28.1943C88.6426 28.4092 89.1943 28.7607 89.6533 29.249C90.1221 29.7275 90.4834 30.3574 90.7373 31.1387C90.9912 31.9199 91.1182 32.8672 91.1182 33.9805V44H86.8701V33.9512C86.8701 33.248 86.7676 32.6963 86.5625 32.2959C86.3672 31.8857 86.0791 31.5977 85.6982 31.4316C85.3271 31.2559 84.8682 31.168 84.3213 31.168C83.7158 31.168 83.1982 31.2803 82.7686 31.5049C82.3486 31.7295 82.0117 32.042 81.7578 32.4424C81.5039 32.833 81.3184 33.292 81.2012 33.8193C81.084 34.3467 81.0254 34.9131 81.0254 35.5186ZM102.86 28.1504H106.684V43.4727C106.684 44.918 106.361 46.1436 105.717 47.1494C105.082 48.165 104.193 48.9316 103.051 49.4492C101.908 49.9766 100.58 50.2402 99.0664 50.2402C98.4023 50.2402 97.6992 50.1523 96.957 49.9766C96.2246 49.8008 95.5215 49.5273 94.8477 49.1562C94.1836 48.7852 93.627 48.3164 93.1777 47.75L95.0381 45.2598C95.5264 45.8262 96.0928 46.2656 96.7373 46.5781C97.3818 46.9004 98.0947 47.0615 98.876 47.0615C99.6377 47.0615 100.282 46.9199 100.81 46.6367C101.337 46.3633 101.742 45.958 102.025 45.4209C102.309 44.8936 102.45 44.2539 102.45 43.502V31.8125L102.86 28.1504ZM92.1963 36.2656V35.958C92.1963 34.7471 92.3428 33.6484 92.6357 32.6621C92.9385 31.666 93.3633 30.8115 93.9102 30.0986C94.4668 29.3857 95.1406 28.834 95.9316 28.4434C96.7227 28.0527 97.6162 27.8574 98.6123 27.8574C99.667 27.8574 100.551 28.0527 101.264 28.4434C101.977 28.834 102.562 29.3906 103.021 30.1133C103.48 30.8262 103.837 31.6709 104.091 32.6475C104.354 33.6143 104.56 34.6738 104.706 35.8262V36.5C104.56 37.6035 104.34 38.6289 104.047 39.5762C103.754 40.5234 103.368 41.3535 102.89 42.0664C102.411 42.7695 101.815 43.3164 101.103 43.707C100.399 44.0977 99.5596 44.293 98.583 44.293C97.6064 44.293 96.7227 44.0928 95.9316 43.6924C95.1504 43.292 94.4814 42.7305 93.9248 42.0078C93.3682 41.2852 92.9385 40.4355 92.6357 39.459C92.3428 38.4824 92.1963 37.418 92.1963 36.2656ZM96.415 35.958V36.2656C96.415 36.9199 96.4785 37.5303 96.6055 38.0967C96.7324 38.6631 96.9277 39.166 97.1914 39.6055C97.4648 40.0352 97.8018 40.3721 98.2021 40.6162C98.6123 40.8506 99.0957 40.9678 99.6523 40.9678C100.424 40.9678 101.054 40.8066 101.542 40.4844C102.03 40.1523 102.396 39.6982 102.641 39.1221C102.885 38.5459 103.026 37.8818 103.065 37.1299V35.2109C103.046 34.5957 102.963 34.0439 102.816 33.5557C102.67 33.0576 102.465 32.6328 102.201 32.2812C101.938 31.9297 101.596 31.6562 101.176 31.4609C100.756 31.2656 100.258 31.168 99.6816 31.168C99.125 31.168 98.6416 31.2949 98.2314 31.5488C97.8311 31.793 97.4941 32.1299 97.2207 32.5596C96.957 32.9893 96.7568 33.4971 96.6201 34.083C96.4834 34.6592 96.415 35.2842 96.415 35.958ZM107.791 36.2363V35.9287C107.791 34.7666 107.957 33.6973 108.289 32.7207C108.621 31.7344 109.104 30.8799 109.739 30.1572C110.374 29.4346 111.155 28.873 112.083 28.4727C113.011 28.0625 114.075 27.8574 115.276 27.8574C116.478 27.8574 117.547 28.0625 118.484 28.4727C119.422 28.873 120.208 29.4346 120.843 30.1572C121.487 30.8799 121.976 31.7344 122.308 32.7207C122.64 33.6973 122.806 34.7666 122.806 35.9287V36.2363C122.806 37.3887 122.64 38.458 122.308 39.4443C121.976 40.4209 121.487 41.2754 120.843 42.0078C120.208 42.7305 119.427 43.292 118.499 43.6924C117.571 44.0928 116.507 44.293 115.306 44.293C114.104 44.293 113.035 44.0928 112.098 43.6924C111.17 43.292 110.384 42.7305 109.739 42.0078C109.104 41.2754 108.621 40.4209 108.289 39.4443C107.957 38.458 107.791 37.3887 107.791 36.2363ZM112.01 35.9287V36.2363C112.01 36.9004 112.068 37.5205 112.186 38.0967C112.303 38.6729 112.488 39.1807 112.742 39.6201C113.006 40.0498 113.348 40.3867 113.768 40.6309C114.188 40.875 114.7 40.9971 115.306 40.9971C115.892 40.9971 116.395 40.875 116.814 40.6309C117.234 40.3867 117.571 40.0498 117.825 39.6201C118.079 39.1807 118.265 38.6729 118.382 38.0967C118.509 37.5205 118.572 36.9004 118.572 36.2363V35.9287C118.572 35.2842 118.509 34.6787 118.382 34.1123C118.265 33.5361 118.074 33.0283 117.811 32.5889C117.557 32.1396 117.22 31.7881 116.8 31.5342C116.38 31.2803 115.872 31.1533 115.276 31.1533C114.681 31.1533 114.173 31.2803 113.753 31.5342C113.343 31.7881 113.006 32.1396 112.742 32.5889C112.488 33.0283 112.303 33.5361 112.186 34.1123C112.068 34.6787 112.01 35.2842 112.01 35.9287Z" fill="#EEEEF2"/>
<path d="M125.846 41.9639C125.846 41.3389 126.061 40.8164 126.49 40.3965C126.93 39.9766 127.511 39.7666 128.233 39.7666C128.956 39.7666 129.532 39.9766 129.962 40.3965C130.401 40.8164 130.621 41.3389 130.621 41.9639C130.621 42.5889 130.401 43.1113 129.962 43.5312C129.532 43.9512 128.956 44.1611 128.233 44.1611C127.511 44.1611 126.93 43.9512 126.49 43.5312C126.061 43.1113 125.846 42.5889 125.846 41.9639Z" fill="#D53F8C"/>
</svg>
